<?xml version="1.0" encoding="utf-8"?>
<!-- Generator: Adobe Illustrator 22.1.0, SVG Export Plug-In . SVG Version: 6.00 Build 0)  -->
<svg version="1.1" xmlns="http://www.w3.org/2000/svg" xmlns:xlink="http://www.w3.org/1999/xlink" x="0px" y="0px"
	 viewBox="0 0 100 100" style="enable-background:new 0 0 100 100;" xml:space="preserve">
<style type="text/css">
	.st0{fill:#333333;}
	.st1{fill:#FF6700;}
	.st2{fill:#FFFFFF;}
	.st3{fill:#333333;stroke:#333333;stroke-width:0.1;stroke-miterlimit:10;}
</style>
<g id="Layer_2">
	<path class="st0" d="M50,4L50,4c25.4,0,46,20.6,46,46v0c0,25.4-20.6,46-46,46h0C24.6,96,4,75.4,4,50v0C4,24.6,24.6,4,50,4z"/>
</g>
<g id="Layer_1">
	<g>
		<path class="st2" d="M15.2,26.5l3.2,4.1l-0.3,0.6l-5.2-1l0.4-0.7l4.1,0.8l-2.6-3.2L15.2,26.5z"/>
		<path class="st2" d="M20.8,23.4l-2.1,2.6c0.4,0.4,0.9,0.5,1.4,0.5c0.5,0,0.9-0.2,1.2-0.6c0.3-0.3,0.5-0.8,0.7-1.2l0.5,0.3
			c-0.1,0.5-0.4,0.9-0.7,1.4c-0.5,0.6-1,0.9-1.7,0.9c-0.6,0-1.3-0.2-1.9-0.7c-0.6-0.5-1-1-1.1-1.6c-0.1-0.6,0-1.2,0.4-1.6
			c0.4-0.4,0.8-0.7,1.4-0.7c0.6,0,1.1,0.2,1.7,0.6L20.8,23.4z M19.8,23.7c-0.3-0.2-0.6-0.4-1-0.3c-0.4,0-0.6,0.1-0.8,0.4
			c-0.2,0.3-0.3,0.6-0.3,1s0.2,0.7,0.5,0.9L19.8,23.7z"/>
		<path class="st2" d="M26.2,21.3c-0.2,0.5-0.5,0.9-0.8,1.2c-0.6,0.6-1.3,0.6-1.9-0.1l-2-2.2l-0.7,0.6l-0.4-0.5l0.7-0.6l-0.9-1
			l0.5-0.5l0.9,1l1.2-1.1l0.4,0.5l-1.2,1.1l1.9,2.1c0.2,0.2,0.4,0.3,0.6,0.4c0.2,0,0.4,0,0.6-0.2c0.3-0.3,0.5-0.6,0.7-1L26.2,21.3z"
			/>
		<path class="st2" d="M30.6,18.4L30,18.8l-0.4-0.6c-0.1,0.8-0.4,1.3-0.9,1.6c-0.8,0.5-1.5,0.3-2.1-0.6l-1.9-2.8l0.6-0.4l1.8,2.6
			c0.2,0.3,0.5,0.6,0.7,0.7c0.2,0.1,0.5,0.1,0.7-0.1c0.4-0.3,0.6-0.8,0.7-1.5l-2-2.9l0.6-0.4L30.6,18.4z"/>
		<path class="st2" d="M33.1,12.4c-0.4,0.1-0.8,0.2-1.1,0.3c-0.4,0.2-0.6,0.4-0.8,0.6c-0.1,0.2-0.2,0.4-0.1,0.6
			c0.1,0.1,0.2,0.2,0.3,0.3c0.1,0,0.4,0,0.7,0l0.7-0.1c0.3-0.1,0.6-0.1,0.9-0.1c0.2,0,0.4,0.1,0.6,0.2c0.2,0.1,0.3,0.3,0.4,0.5
			c0.2,0.4,0.2,0.8,0,1.3c-0.2,0.4-0.6,0.8-1.2,1c-0.5,0.3-1,0.4-1.5,0.4l-0.2-0.6c0.5,0,0.9-0.1,1.3-0.3c0.4-0.2,0.6-0.4,0.8-0.6
			c0.2-0.2,0.2-0.5,0.1-0.7c-0.1-0.2-0.2-0.3-0.4-0.3c-0.2-0.1-0.5-0.1-1,0c-0.4,0.1-0.7,0.1-0.9,0.1c-0.2,0-0.4,0-0.6,0
			s-0.4-0.1-0.5-0.2c-0.1-0.1-0.3-0.2-0.3-0.4c-0.2-0.4-0.2-0.8,0.1-1.2c0.2-0.4,0.6-0.7,1.2-1c0.4-0.2,0.8-0.3,1.3-0.4L33.1,12.4z"
			/>
		<path class="st2" d="M46.1,13c-0.4,0.3-0.8,0.4-1.3,0.5c-0.8,0.1-1.4,0-1.9-0.4c-0.5-0.4-0.9-1-1-1.7s0-1.4,0.4-2
			c0.4-0.5,1-0.9,1.7-1c0.5-0.1,1-0.1,1.4,0l-0.1,0.6C44.8,9,44.4,9,44,9c-0.5,0.1-0.9,0.3-1.2,0.7s-0.3,0.9-0.2,1.5
			c0.1,0.5,0.3,1,0.7,1.3s0.8,0.4,1.3,0.4c0.4-0.1,0.8-0.2,1.2-0.4L46.1,13z"/>
		<path class="st2" d="M49.4,8c0.7,0,1.2,0.2,1.6,0.7c0.4,0.5,0.6,1.1,0.6,1.9c0,0.8-0.2,1.4-0.6,1.9c-0.4,0.5-0.9,0.7-1.6,0.7
			c-0.7,0-1.2-0.2-1.6-0.7c-0.4-0.5-0.6-1.1-0.6-1.9c0-0.8,0.2-1.4,0.6-1.9C48.2,8.2,48.8,8,49.4,8z M49.5,12.5c0.4,0,0.8-0.2,1-0.6
			c0.3-0.4,0.4-0.8,0.4-1.4c0-0.6-0.1-1-0.4-1.4c-0.3-0.4-0.6-0.5-1.1-0.5c-0.5,0-0.8,0.2-1.1,0.6C48.2,9.5,48,10,48,10.6
			c0,0.5,0.1,1,0.4,1.4C48.7,12.3,49.1,12.5,49.5,12.5z"/>
		<path class="st2" d="M57.6,13.7l-0.7-0.1l0.5-3.2c0.1-0.8,0-1.2-0.3-1.2c-0.1,0-0.3,0.1-0.5,0.3s-0.3,0.4-0.3,0.4l-0.5,3.5
			l-0.7-0.1l0.5-3.2c0.1-0.8,0-1.2-0.3-1.2c-0.1,0-0.3,0.1-0.5,0.3s-0.3,0.4-0.3,0.4l-0.5,3.5L53,13.1l0.7-4.9l0.7,0.1L54.3,9
			c0.2-0.2,0.4-0.4,0.6-0.5s0.4-0.2,0.6-0.2c0.2,0,0.4,0.1,0.5,0.3c0.1,0.2,0.2,0.4,0.2,0.7c0.2-0.2,0.4-0.4,0.6-0.5
			c0.2-0.1,0.4-0.2,0.6-0.2c0.6,0.1,0.8,0.7,0.7,1.7L57.6,13.7z"/>
		<path class="st2" d="M61.1,10.2c0.2-0.2,0.5-0.3,0.8-0.3s0.6,0,0.9,0.1c0.5,0.2,0.9,0.5,1.1,1.1s0.1,1.2-0.1,1.9
			c-0.2,0.7-0.6,1.3-1,1.7c-0.5,0.4-1,0.5-1.5,0.3c-0.3-0.1-0.5-0.2-0.8-0.5c-0.2-0.2-0.4-0.5-0.4-0.8l-0.8,2.5l-0.7-0.2l2-6.5
			l0.7,0.2L61.1,10.2z M60.8,10.9l-0.6,2c0.1,0.3,0.2,0.6,0.3,0.8s0.4,0.4,0.6,0.5c0.4,0.1,0.7,0,1.1-0.3c0.3-0.3,0.6-0.7,0.7-1.2
			c0.2-0.5,0.2-1,0.1-1.4c-0.1-0.4-0.4-0.7-0.7-0.8C61.9,10.3,61.4,10.5,60.8,10.9z"/>
		<path class="st2" d="M67.8,17.5l-0.7-0.3l0.3-0.7c-0.7,0.3-1.3,0.3-1.9,0c-0.8-0.4-1-1.1-0.5-2.1l1.5-3l0.7,0.3l-1.4,2.8
			c-0.2,0.4-0.3,0.7-0.2,0.9c0,0.2,0.2,0.4,0.5,0.6c0.4,0.2,1,0.2,1.7-0.1l1.5-3.2l0.7,0.3L67.8,17.5z"/>
		<path class="st2" d="M72.4,20.2c-0.5-0.1-1-0.3-1.4-0.5c-0.7-0.5-0.8-1.1-0.3-1.9l1.7-2.5l-0.8-0.5l0.4-0.5l0.8,0.5l0.8-1.1
			l0.6,0.4l-0.8,1.1l1.4,0.9l-0.4,0.5L73,15.7l-1.6,2.3c-0.2,0.2-0.2,0.5-0.2,0.7c0,0.2,0.1,0.4,0.3,0.5c0.3,0.2,0.7,0.4,1.1,0.4
			L72.4,20.2z"/>
		<path class="st2" d="M78,22.1l-2.5-2.3c-0.4,0.4-0.6,0.9-0.6,1.3s0.2,0.9,0.5,1.2c0.3,0.3,0.7,0.5,1.2,0.7l-0.3,0.5
			c-0.5-0.1-0.9-0.4-1.3-0.8c-0.5-0.5-0.8-1.1-0.8-1.7c0-0.6,0.2-1.3,0.8-1.9c0.5-0.6,1.1-0.9,1.7-1c0.6-0.1,1.1,0.1,1.6,0.5
			c0.4,0.4,0.6,0.9,0.6,1.4c0,0.6-0.3,1.1-0.7,1.7L78,22.1z M77.8,21.2c0.3-0.3,0.4-0.6,0.4-1c0-0.4-0.1-0.6-0.3-0.8
			c-0.3-0.3-0.6-0.4-1-0.4c-0.4,0-0.7,0.2-1,0.4L77.8,21.2z"/>
		<path class="st2" d="M83.4,24.8l-0.7,0.2c-0.1-0.3-0.2-0.6-0.4-0.8c-0.1-0.2-0.3-0.3-0.5-0.4c-0.2-0.1-0.5-0.1-0.8-0.1
			c-0.3,0-0.4,0-0.5,0l-2.4,2l-0.5-0.6l3.8-3.1l0.5,0.6l-0.8,0.6c0.8-0.2,1.4,0,1.8,0.5C83.2,24.1,83.3,24.5,83.4,24.8z"/>
		<path class="st2" d="M85.8,29.6c-0.1-0.4-0.2-0.8-0.4-1.1c-0.2-0.3-0.4-0.6-0.7-0.7c-0.2-0.1-0.4-0.1-0.6,0
			c-0.1,0.1-0.2,0.2-0.2,0.3c0,0.1,0,0.4,0.1,0.7l0.2,0.7c0.1,0.3,0.1,0.6,0.1,0.8c0,0.2-0.1,0.5-0.2,0.6c-0.1,0.2-0.3,0.3-0.5,0.5
			c-0.4,0.2-0.8,0.3-1.3,0.1s-0.8-0.5-1.1-1.1c-0.3-0.5-0.5-1-0.6-1.4l0.6-0.2c0,0.5,0.2,0.9,0.4,1.3c0.2,0.3,0.5,0.6,0.7,0.7
			c0.3,0.1,0.5,0.1,0.7,0c0.1-0.1,0.2-0.2,0.3-0.4c0-0.2,0-0.5-0.1-1c-0.1-0.4-0.2-0.7-0.2-0.9c0-0.2-0.1-0.4,0-0.6s0.1-0.4,0.2-0.5
			c0.1-0.2,0.2-0.3,0.4-0.4c0.4-0.2,0.7-0.2,1.2-0.1c0.4,0.2,0.8,0.5,1.1,1.1c0.2,0.3,0.4,0.7,0.5,1.2L85.8,29.6z"/>
	</g>
	<polygon class="st2" points="78.6,41.1 78.6,38.9 76.4,38.9 76.4,41.1 76.4,45.5 72,45.5 72,41.1 72,36.7 67.6,36.7 67.6,32.3 
		65.4,32.3 65.4,27.9 63.2,27.9 63.2,23.5 58.8,23.5 58.8,21.3 41.2,21.3 41.2,23.5 36.8,23.5 36.8,27.9 34.6,27.9 34.6,32.3 
		32.4,32.3 32.4,36.7 30.2,36.7 30.2,41.1 28,41.1 28,45.5 23.6,45.5 23.6,41.1 23.6,38.9 21.4,38.9 21.4,41.1 19.2,41.1 19.2,45.5 
		21.4,45.5 21.4,47.7 23.6,47.7 23.6,49.9 30.2,49.9 30.2,63.1 25.8,63.1 25.8,58.7 25.8,56.5 23.6,56.5 23.6,58.7 21.4,58.7 
		21.4,63.1 23.6,63.1 23.6,65.3 25.8,65.3 25.8,67.5 30.2,67.5 30.2,65.3 32.4,65.3 32.4,63.1 34.6,63.1 34.6,49.9 39,49.9 39,67.5 
		34.6,67.5 32.4,67.5 32.4,69.7 34.6,69.7 34.6,71.9 39,71.9 41.2,71.9 41.2,69.7 43.4,69.7 43.4,67.5 43.4,49.9 47.8,49.9 
		47.8,76.3 43.4,76.3 43.4,78.5 41.2,78.5 41.2,80.7 43.4,80.7 47.8,80.7 47.8,78.5 50,78.5 52.2,78.5 52.2,80.7 56.6,80.7 
		58.8,80.7 58.8,78.5 56.6,78.5 56.6,76.3 52.2,76.3 52.2,49.9 56.6,49.9 56.6,69.7 58.8,69.7 58.8,71.9 61,71.9 65.4,71.9 
		65.4,69.7 67.6,69.7 67.6,67.5 65.4,67.5 61,67.5 61,49.9 65.4,49.9 65.4,63.1 67.6,63.1 67.6,65.3 69.8,65.3 69.8,67.5 74.2,67.5 
		74.2,65.3 76.4,65.3 76.4,63.1 78.6,63.1 78.6,58.7 76.4,58.7 76.4,56.5 74.2,56.5 74.2,58.7 74.2,63.1 69.8,63.1 69.8,49.9 
		76.4,49.9 76.4,47.7 78.6,47.7 78.6,45.5 80.8,45.5 80.8,41.1 	"/>
	<polygon class="st2" points="39,36.7 39,34.5 36.8,34.5 36.8,32.3 32.4,32.3 32.4,34.5 30.2,34.5 30.2,36.7 28,36.7 28,41.1 
		30.2,41.1 30.2,43.3 32.4,43.3 32.4,45.5 36.8,45.5 36.8,43.3 39,43.3 39,41.1 41.2,41.1 41.2,36.7 	"/>
	<polygon class="st2" points="69.8,36.7 69.8,34.5 67.6,34.5 67.6,32.3 63.2,32.3 63.2,34.5 61,34.5 61,36.7 58.8,36.7 58.8,41.1 
		61,41.1 61,43.3 63.2,43.3 63.2,45.5 67.6,45.5 67.6,43.3 69.8,43.3 69.8,41.1 72,41.1 72,36.7 	"/>
	<rect x="32.4" y="36.7" class="st0" width="4.4" height="4.4"/>
	<rect x="63.2" y="36.7" class="st0" width="4.4" height="4.4"/>
	<g>
		<path class="st2" d="M7.4,57.6l-0.1-0.7l3.1-0.4c0.4-0.1,0.7-0.2,0.9-0.3c0.2-0.2,0.2-0.4,0.2-0.7c-0.1-0.4-0.4-0.9-1-1.3L7,54.6
			l-0.1-0.7l4.9-0.7l0.1,0.7l-0.7,0.1c0.6,0.5,1,1,1.1,1.5c0.1,0.9-0.4,1.4-1.5,1.6L7.4,57.6z"/>
		<path class="st2" d="M13.3,60.6c0.2,0.7,0.1,1.2-0.2,1.8c-0.3,0.5-0.9,0.9-1.6,1.1c-0.7,0.2-1.4,0.2-2-0.1
			c-0.6-0.3-0.9-0.7-1.1-1.4c-0.2-0.7-0.1-1.2,0.2-1.8c0.3-0.5,0.9-0.9,1.6-1.1c0.7-0.2,1.4-0.2,2,0.1
			C12.7,59.5,13.1,59.9,13.3,60.6z M9,61.8c0.1,0.4,0.4,0.7,0.8,0.9c0.4,0.1,0.9,0.1,1.4,0c0.5-0.2,1-0.4,1.2-0.8s0.4-0.7,0.2-1.2
			c-0.1-0.4-0.4-0.7-0.8-0.9c-0.4-0.1-0.9-0.1-1.5,0c-0.5,0.2-0.9,0.4-1.2,0.7C8.9,61,8.8,61.4,9,61.8z"/>
		<path class="st2" d="M11.4,69.6L11.1,69l2.9-1.3c0.4-0.2,0.7-0.4,0.8-0.6c0.1-0.2,0.1-0.4,0-0.7c-0.2-0.4-0.6-0.7-1.4-1l-3.2,1.5
			l-0.3-0.7l4.5-2l0.3,0.7L14,65.1c0.7,0.2,1.2,0.6,1.5,1.2c0.4,0.8,0.1,1.5-1,2L11.4,69.6z"/>
		<path class="st2" d="M18.9,80.1l-0.5-0.6l2.4-2.1c0.6-0.5,0.8-0.9,0.6-1.1c-0.1-0.1-0.3-0.1-0.6-0.1c-0.3,0-0.5,0.1-0.5,0.1
			l-2.7,2.3l-0.5-0.6l2.4-2.1c0.6-0.5,0.8-0.9,0.6-1.1c-0.1-0.1-0.3-0.1-0.6-0.1c-0.3,0-0.5,0.1-0.5,0.1l-2.7,2.3l-0.5-0.6l3.7-3.2
			l0.5,0.5l-0.6,0.5c0.3-0.1,0.6-0.1,0.8,0c0.2,0,0.4,0.1,0.6,0.3c0.1,0.2,0.2,0.3,0.2,0.6c0,0.2-0.1,0.4-0.3,0.7
			c0.3-0.1,0.6-0.1,0.8,0s0.4,0.1,0.5,0.3c0.4,0.4,0.2,1-0.6,1.7L18.9,80.1z"/>
		<path class="st2" d="M25.3,79.1c0.5,0.4,0.8,1,0.8,1.6c0,0.6-0.3,1.2-0.8,1.8c-0.5,0.6-1.1,0.9-1.7,1s-1.2-0.1-1.7-0.5
			c-0.5-0.4-0.8-1-0.8-1.6s0.3-1.2,0.8-1.8c0.5-0.6,1.1-0.9,1.7-1S24.8,78.7,25.3,79.1z M22.4,82.6c0.3,0.3,0.7,0.4,1.2,0.3
			c0.4-0.1,0.8-0.4,1.2-0.8c0.4-0.4,0.6-0.9,0.6-1.3c0-0.4-0.1-0.8-0.5-1.1c-0.3-0.3-0.7-0.4-1.2-0.3c-0.4,0.1-0.8,0.4-1.2,0.8
			c-0.4,0.4-0.6,0.9-0.6,1.3C21.9,81.9,22,82.3,22.4,82.6z"/>
		<path class="st2" d="M31.2,83.6L30.5,84c-0.2-0.3-0.4-0.5-0.6-0.6c-0.2-0.1-0.4-0.2-0.6-0.2c-0.2,0-0.5,0-0.8,0.1
			c-0.3,0.1-0.4,0.2-0.4,0.2l-1.7,2.7l-0.6-0.4l2.6-4.2l0.6,0.4l-0.5,0.8c0.7-0.4,1.4-0.5,1.9-0.1C30.7,83,31,83.2,31.2,83.6z"/>
		<path class="st2" d="M32.7,89.6L32,89.3l1.8-3.9l-1.3-0.6l0.3-0.6l2,0.9L32.7,89.6z M35.2,83.3c0.1,0.1,0.2,0.2,0.3,0.3
			c0,0.1,0,0.3,0,0.4c-0.1,0.1-0.2,0.2-0.3,0.3s-0.3,0-0.4,0c-0.1-0.1-0.2-0.1-0.2-0.3s0-0.3,0-0.4s0.2-0.2,0.3-0.3
			C35,83.2,35.1,83.2,35.2,83.3z"/>
		<path class="st2" d="M47.7,93.2L47,93.1l0.1-0.7c-0.2,0.2-0.4,0.4-0.7,0.5c-0.3,0.1-0.6,0.2-0.9,0.1c-0.6-0.1-1-0.3-1.3-0.9
			s-0.4-1.2-0.3-2c0.1-0.7,0.3-1.3,0.7-1.7c0.4-0.4,0.9-0.6,1.4-0.6c0.6,0.1,1.1,0.4,1.4,0.9l0.2-2.4l0.7,0.1L47.7,93.2z M47.1,91.6
			l0.2-2c-0.3-0.6-0.7-0.9-1.2-1c-0.4,0-0.7,0.1-1,0.4c-0.3,0.3-0.4,0.8-0.5,1.3c-0.1,0.6,0,1,0.2,1.4c0.2,0.4,0.5,0.6,0.9,0.6
			c0.2,0,0.4,0,0.6-0.1c0.2-0.1,0.4-0.2,0.6-0.4C47,91.8,47.1,91.7,47.1,91.6z"/>
		<path class="st2" d="M51.1,88.2c0.7,0,1.2,0.2,1.6,0.7c0.4,0.5,0.6,1.1,0.7,1.9c0,0.8-0.2,1.4-0.5,1.9c-0.4,0.5-0.9,0.7-1.6,0.8
			c-0.7,0-1.2-0.2-1.6-0.7c-0.4-0.5-0.6-1.1-0.7-1.9c0-0.8,0.2-1.4,0.5-1.9C49.8,88.4,50.4,88.2,51.1,88.2z M51.2,92.7
			c0.4,0,0.8-0.2,1-0.6s0.4-0.8,0.3-1.4c0-0.6-0.2-1-0.4-1.4c-0.3-0.4-0.6-0.5-1.1-0.5c-0.5,0-0.8,0.2-1,0.6
			c-0.2,0.4-0.4,0.8-0.3,1.4c0,0.5,0.2,1,0.4,1.4C50.4,92.5,50.7,92.7,51.2,92.7z"/>
		<path class="st2" d="M63.5,86.6c-0.4,0-0.8,0.1-1.2,0.2c-0.4,0.1-0.7,0.3-0.8,0.5c-0.2,0.2-0.2,0.4-0.2,0.6c0,0.1,0.1,0.2,0.3,0.3
			s0.4,0.1,0.7,0.1l0.7,0c0.3,0,0.6,0,0.9,0.1c0.2,0.1,0.4,0.2,0.6,0.3s0.3,0.3,0.3,0.6c0.1,0.4,0.1,0.9-0.2,1.2
			c-0.3,0.4-0.7,0.7-1.3,0.9c-0.6,0.2-1.1,0.3-1.5,0.2l-0.1-0.7c0.5,0.1,0.9,0,1.4-0.1c0.4-0.1,0.7-0.3,0.9-0.5
			c0.2-0.2,0.3-0.5,0.2-0.7c-0.1-0.2-0.2-0.3-0.3-0.4c-0.2-0.1-0.5-0.1-1-0.1c-0.4,0-0.7,0-0.9,0c-0.2,0-0.4,0-0.6-0.1
			c-0.2-0.1-0.3-0.2-0.5-0.3c-0.1-0.1-0.2-0.3-0.3-0.5c-0.1-0.4-0.1-0.8,0.2-1.1c0.3-0.4,0.7-0.6,1.3-0.8c0.4-0.1,0.8-0.2,1.3-0.2
			L63.5,86.6z"/>
		<path class="st2" d="M70.8,88l-0.7,0.3l-0.3-0.7c-0.2,0.7-0.6,1.2-1.1,1.5c-0.8,0.4-1.5,0.1-2-0.9l-1.5-3l0.7-0.3l1.4,2.8
			c0.2,0.4,0.4,0.6,0.6,0.8s0.5,0.1,0.7,0c0.4-0.2,0.7-0.7,0.9-1.4l-1.6-3.2l0.7-0.3L70.8,88z"/>
		<path class="st2" d="M71.7,81.4c0.6-0.4,1.1-0.5,1.7-0.3c0.6,0.2,1.1,0.6,1.6,1.2c0.4,0.6,0.6,1.3,0.6,1.9
			c-0.1,0.6-0.4,1.1-0.9,1.5c-0.6,0.4-1.1,0.5-1.7,0.3s-1.1-0.6-1.6-1.2c-0.4-0.6-0.6-1.3-0.6-1.9S71.1,81.8,71.7,81.4z M74.3,85.2
			c0.4-0.3,0.5-0.6,0.5-1.1c0-0.5-0.2-0.9-0.5-1.4c-0.3-0.5-0.7-0.8-1.1-0.9c-0.4-0.2-0.8-0.1-1.2,0.2c-0.4,0.3-0.6,0.6-0.6,1.1
			c0,0.4,0.2,0.9,0.5,1.4c0.3,0.5,0.7,0.8,1.1,0.9C73.5,85.5,73.9,85.4,74.3,85.2z"/>
		<path class="st2" d="M84.9,75.6l-0.5,0.6l-0.6-0.5c0.1,0.8,0,1.4-0.4,1.8c-0.6,0.7-1.3,0.7-2.2,0l-2.6-2.1l0.5-0.6l2.5,2
			c0.3,0.3,0.6,0.4,0.9,0.4c0.2,0,0.5-0.1,0.7-0.3c0.3-0.4,0.4-0.9,0.3-1.7l-2.8-2.2l0.5-0.6L84.9,75.6z"/>
		<path class="st2" d="M84.2,68.8c-0.3,0.3-0.6,0.6-0.8,0.9c-0.2,0.3-0.3,0.7-0.3,0.9c0,0.3,0.1,0.5,0.3,0.6
			c0.1,0.1,0.3,0.1,0.4,0.1c0.1,0,0.3-0.2,0.6-0.4l0.5-0.5c0.2-0.2,0.5-0.4,0.7-0.5c0.2-0.1,0.4-0.2,0.6-0.2c0.2,0,0.4,0.1,0.6,0.2
			c0.4,0.2,0.6,0.6,0.7,1.1c0,0.5-0.1,1-0.4,1.5c-0.3,0.5-0.6,0.9-1,1.1l-0.5-0.4c0.4-0.3,0.7-0.6,0.9-1c0.2-0.4,0.3-0.7,0.3-1
			c0-0.3-0.1-0.5-0.3-0.6c-0.1-0.1-0.3-0.1-0.5-0.1c-0.2,0-0.5,0.2-0.8,0.6c-0.3,0.3-0.5,0.5-0.7,0.6c-0.1,0.1-0.3,0.2-0.5,0.3
			c-0.2,0.1-0.4,0.1-0.5,0.1s-0.3-0.1-0.5-0.2c-0.4-0.2-0.6-0.6-0.6-1s0.1-0.9,0.4-1.5c0.2-0.3,0.5-0.7,0.9-1L84.2,68.8z"/>
		<path class="st2" d="M88.4,63.8L87.1,67c0.5,0.2,1,0.2,1.5,0.1c0.5-0.2,0.8-0.5,1-0.9c0.2-0.4,0.3-0.9,0.3-1.4l0.6,0.1
			c0,0.5-0.1,1-0.3,1.5c-0.3,0.7-0.7,1.1-1.3,1.4c-0.6,0.2-1.3,0.2-2-0.1c-0.7-0.3-1.2-0.7-1.5-1.3s-0.3-1.1,0-1.7
			c0.2-0.5,0.6-0.9,1.1-1.1c0.5-0.2,1.2-0.1,1.8,0.1L88.4,63.8z M87.6,64.4c-0.4-0.1-0.7-0.2-1,0c-0.3,0.1-0.6,0.3-0.7,0.6
			c-0.1,0.4-0.2,0.7,0,1c0.1,0.3,0.4,0.6,0.8,0.8L87.6,64.4z"/>
		<path class="st2" d="M87.7,57.9l0.6,0.5c-0.2,0.3-0.4,0.5-0.4,0.8c-0.1,0.2,0,0.4,0,0.7c0.1,0.2,0.2,0.5,0.4,0.7
			c0.2,0.2,0.3,0.3,0.3,0.4l3.1,0.8l-0.2,0.7l-4.8-1.3l0.2-0.7l1,0.3c-0.6-0.6-0.8-1.2-0.7-1.8C87.2,58.6,87.4,58.2,87.7,57.9z"/>
		<path class="st2" d="M88.9,53.4c-0.2,0.4-0.3,0.8-0.3,1.1c0,0.4,0,0.7,0.1,1c0.1,0.2,0.3,0.4,0.5,0.4c0.1,0,0.3,0,0.4-0.1
			c0.1-0.1,0.2-0.3,0.4-0.6l0.3-0.7c0.1-0.3,0.3-0.6,0.4-0.8c0.2-0.2,0.3-0.3,0.5-0.4c0.2-0.1,0.4-0.1,0.6-0.1
			c0.5,0.1,0.8,0.3,1,0.7s0.3,0.9,0.2,1.5c-0.1,0.6-0.2,1.1-0.5,1.5l-0.6-0.2c0.2-0.4,0.4-0.8,0.5-1.3c0-0.4,0-0.7-0.1-1
			c-0.1-0.3-0.3-0.4-0.6-0.5c-0.2,0-0.3,0-0.5,0.1c-0.1,0.1-0.3,0.4-0.5,0.8c-0.2,0.4-0.3,0.6-0.4,0.8c-0.1,0.2-0.2,0.3-0.3,0.5
			c-0.1,0.1-0.3,0.2-0.4,0.3c-0.2,0.1-0.3,0.1-0.5,0.1c-0.4-0.1-0.7-0.3-0.9-0.7c-0.2-0.4-0.3-0.9-0.2-1.5c0-0.4,0.2-0.8,0.4-1.3
			L88.9,53.4z"/>
	</g>
</g>
</svg>
