<svg xmlns="http://www.w3.org/2000/svg" width="22.578mm" height="22.578mm" viewBox="0 0 64 64">
  <title>SGI</title>
  <g>
    <path d="M35.9,32.1v3.8H32.1V32.1h3.8M36,32H32v4h4V32Z" fill="#6a5500"/>
    <path d="M39.9,32.1v3.8H36.1V32.1h3.8M40,32H36v4h4V32Z" fill="#6a5500"/>
    <path d="M43.9,32.1v3.8H40.1V32.1h3.8M44,32H40v4h4V32Z" fill="#6a5500"/>
    <path d="M47.9,32.1v3.8H44.1V32.1h3.8M48,32H44v4h4V32Z" fill="#6a5500"/>
    <path d="M35.9,36.1v3.8H32.1V36.1h3.8M36,36H32v4h4V36Z" fill="#6a5500"/>
    <path d="M39.9,36.1v3.8H36.1V36.1h3.8M40,36H36v4h4V36Z" fill="#6a5500"/>
    <path d="M43.9,36.1v3.8H40.1V36.1h3.8M44,36H40v4h4V36Z" fill="#6a5500"/>
    <path d="M47.9,36.1v3.8H44.1V36.1h3.8M48,36H44v4h4V36Z" fill="#6a5500"/>
    <path d="M35.9,40.1v3.8H32.1V40.1h3.8M36,40H32v4h4V40Z" fill="#6a5500"/>
    <path d="M39.9,40.1v3.8H36.1V40.1h3.8M40,40H36v4h4V40Z" fill="#6a5500"/>
    <path d="M43.9,40.1v3.8H40.1V40.1h3.8M44,40H40v4h4V40Z" fill="#6a5500"/>
    <path d="M47.9,40.1v3.8H44.1V40.1h3.8M48,40H44v4h4V40Z" fill="#6a5500"/>
    <path d="M35.9,44.1v3.8H32.1V44.1h3.8M36,44H32v4h4V44Z" fill="#6a5500"/>
    <path d="M39.9,44.1v3.8H36.1V44.1h3.8M40,44H36v4h4V44Z" fill="#6a5500"/>
    <path d="M43.9,44.1v3.8H40.1V44.1h3.8M44,44H40v4h4V44Z" fill="#6a5500"/>
    <path d="M47.9,44.1v3.8H44.1V44.1h3.8M48,44H44v4h4V44Z" fill="#6a5500"/>
    <path d="M51.9,32.1v3.8H48.1V32.1h3.8M52,32H48v4h4V32Z" fill="#6a5500"/>
    <path d="M55.9,32.1v3.8H52.1V32.1h3.8M56,32H52v4h4V32Z" fill="#6a5500"/>
    <path d="M59.9,32.1v3.8H56.1V32.1h3.8M60,32H56v4h4V32Z" fill="#6a5500"/>
    <path d="M63.9,32.1v3.8H60.1V32.1h3.8M64,32H60v4h4V32Z" fill="#6a5500"/>
    <path d="M51.9,36.1v3.8H48.1V36.1h3.8M52,36H48v4h4V36Z" fill="#6a5500"/>
    <path d="M55.9,36.1v3.8H52.1V36.1h3.8M56,36H52v4h4V36Z" fill="#6a5500"/>
    <path d="M59.9,36.1v3.8H56.1V36.1h3.8M60,36H56v4h4V36Z" fill="#6a5500"/>
    <path d="M63.9,36.1v3.8H60.1V36.1h3.8M64,36H60v4h4V36Z" fill="#6a5500"/>
    <path d="M51.9,40.1v3.8H48.1V40.1h3.8M52,40H48v4h4V40Z" fill="#6a5500"/>
    <path d="M55.9,40.1v3.8H52.1V40.1h3.8M56,40H52v4h4V40Z" fill="#6a5500"/>
    <path d="M59.9,40.1v3.8H56.1V40.1h3.8M60,40H56v4h4V40Z" fill="#6a5500"/>
    <path d="M63.9,40.1v3.8H60.1V40.1h3.8M64,40H60v4h4V40Z" fill="#6a5500"/>
    <path d="M51.9,44.1v3.8H48.1V44.1h3.8M52,44H48v4h4V44Z" fill="#6a5500"/>
    <path d="M55.9,44.1v3.8H52.1V44.1h3.8M56,44H52v4h4V44Z" fill="#6a5500"/>
    <path d="M59.9,44.1v3.8H56.1V44.1h3.8M60,44H56v4h4V44Z" fill="#6a5500"/>
    <path d="M63.9,44.1v3.8H60.1V44.1h3.8M64,44H60v4h4V44Z" fill="#6a5500"/>
    <path d="M35.9,48.1v3.8H32.1V48.1h3.8M36,48H32v4h4V48Z" fill="#6a5500"/>
    <path d="M39.9,48.1v3.8H36.1V48.1h3.8M40,48H36v4h4V48Z" fill="#6a5500"/>
    <path d="M43.9,48.1v3.8H40.1V48.1h3.8M44,48H40v4h4V48Z" fill="#6a5500"/>
    <path d="M47.9,48.1v3.8H44.1V48.1h3.8M48,48H44v4h4V48Z" fill="#6a5500"/>
    <path d="M35.9,52.1v3.8H32.1V52.1h3.8M36,52H32v4h4V52Z" fill="#6a5500"/>
    <path d="M39.9,52.1v3.8H36.1V52.1h3.8M40,52H36v4h4V52Z" fill="#6a5500"/>
    <path d="M43.9,52.1v3.8H40.1V52.1h3.8M44,52H40v4h4V52Z" fill="#6a5500"/>
    <path d="M47.9,52.1v3.8H44.1V52.1h3.8M48,52H44v4h4V52Z" fill="#6a5500"/>
    <path d="M35.9,56.1v3.8H32.1V56.1h3.8M36,56H32v4h4V56Z" fill="#6a5500"/>
    <path d="M39.9,56.1v3.8H36.1V56.1h3.8M40,56H36v4h4V56Z" fill="#6a5500"/>
    <path d="M43.9,56.1v3.8H40.1V56.1h3.8M44,56H40v4h4V56Z" fill="#6a5500"/>
    <path d="M47.9,56.1v3.8H44.1V56.1h3.8M48,56H44v4h4V56Z" fill="#6a5500"/>
    <path d="M35.9,60.1v3.8H32.1V60.1h3.8M36,60H32v4h4V60Z" fill="#6a5500"/>
    <path d="M39.9,60.1v3.8H36.1V60.1h3.8M40,60H36v4h4V60Z" fill="#6a5500"/>
    <path d="M43.9,60.1v3.8H40.1V60.1h3.8M44,60H40v4h4V60Z" fill="#6a5500"/>
    <path d="M47.9,60.1v3.8H44.1V60.1h3.8M48,60H44v4h4V60Z" fill="#6a5500"/>
    <path d="M51.9,48.1v3.8H48.1V48.1h3.8M52,48H48v4h4V48Z" fill="#6a5500"/>
    <path d="M55.9,48.1v3.8H52.1V48.1h3.8M56,48H52v4h4V48Z" fill="#6a5500"/>
    <path d="M59.9,48.1v3.8H56.1V48.1h3.8M60,48H56v4h4V48Z" fill="#6a5500"/>
    <path d="M63.9,48.1v3.8H60.1V48.1h3.8M64,48H60v4h4V48Z" fill="#6a5500"/>
    <path d="M51.9,52.1v3.8H48.1V52.1h3.8M52,52H48v4h4V52Z" fill="#6a5500"/>
    <path d="M55.9,52.1v3.8H52.1V52.1h3.8M56,52H52v4h4V52Z" fill="#6a5500"/>
    <path d="M59.9,52.1v3.8H56.1V52.1h3.8M60,52H56v4h4V52Z" fill="#6a5500"/>
    <path d="M63.9,52.1v3.8H60.1V52.1h3.8M64,52H60v4h4V52Z" fill="#6a5500"/>
    <path d="M51.9,56.1v3.8H48.1V56.1h3.8M52,56H48v4h4V56Z" fill="#6a5500"/>
    <path d="M55.9,56.1v3.8H52.1V56.1h3.8M56,56H52v4h4V56Z" fill="#6a5500"/>
    <path d="M59.9,56.1v3.8H56.1V56.1h3.8M60,56H56v4h4V56Z" fill="#6a5500"/>
    <path d="M63.9,56.1v3.8H60.1V56.1h3.8M64,56H60v4h4V56Z" fill="#6a5500"/>
    <path d="M51.9,60.1v3.8H48.1V60.1h3.8M52,60H48v4h4V60Z" fill="#6a5500"/>
    <path d="M55.9,60.1v3.8H52.1V60.1h3.8M56,60H52v4h4V60Z" fill="#6a5500"/>
    <path d="M59.9,60.1v3.8H56.1V60.1h3.8M60,60H56v4h4V60Z" fill="#6a5500"/>
    <path d="M63.9,60.1v3.8H60.1V60.1h3.8M64,60H60v4h4V60Z" fill="#6a5500"/>
    <path d="M35.9.1V3.9H32.1V.1h3.8M36,0H32V4h4V0Z" fill="#6a5500"/>
    <path d="M39.9.1V3.9H36.1V.1h3.8M40,0H36V4h4V0Z" fill="#6a5500"/>
    <path d="M43.9.1V3.9H40.1V.1h3.8M44,0H40V4h4V0Z" fill="#6a5500"/>
    <path d="M47.9.1V3.9H44.1V.1h3.8M48,0H44V4h4V0Z" fill="#6a5500"/>
    <path d="M35.9,4.1V7.9H32.1V4.1h3.8M36,4H32V8h4V4Z" fill="#6a5500"/>
    <path d="M39.9,4.1V7.9H36.1V4.1h3.8M40,4H36V8h4V4Z" fill="#6a5500"/>
    <path d="M43.9,4.1V7.9H40.1V4.1h3.8M44,4H40V8h4V4Z" fill="#6a5500"/>
    <path d="M47.9,4.1V7.9H44.1V4.1h3.8M48,4H44V8h4V4Z" fill="#6a5500"/>
    <path d="M35.9,8.1v3.8H32.1V8.1h3.8M36,8H32v4h4V8Z" fill="#6a5500"/>
    <path d="M39.9,8.1v3.8H36.1V8.1h3.8M40,8H36v4h4V8Z" fill="#6a5500"/>
    <path d="M43.9,8.1v3.8H40.1V8.1h3.8M44,8H40v4h4V8Z" fill="#6a5500"/>
    <path d="M47.9,8.1v3.8H44.1V8.1h3.8M48,8H44v4h4V8Z" fill="#6a5500"/>
    <path d="M35.9,12.1v3.8H32.1V12.1h3.8M36,12H32v4h4V12Z" fill="#6a5500"/>
    <path d="M39.9,12.1v3.8H36.1V12.1h3.8M40,12H36v4h4V12Z" fill="#6a5500"/>
    <path d="M43.9,12.1v3.8H40.1V12.1h3.8M44,12H40v4h4V12Z" fill="#6a5500"/>
    <path d="M47.9,12.1v3.8H44.1V12.1h3.8M48,12H44v4h4V12Z" fill="#6a5500"/>
    <path d="M51.9.1V3.9H48.1V.1h3.8M52,0H48V4h4V0Z" fill="#6a5500"/>
    <path d="M55.9.1V3.9H52.1V.1h3.8M56,0H52V4h4V0Z" fill="#6a5500"/>
    <path d="M59.9.1V3.9H56.1V.1h3.8M60,0H56V4h4V0Z" fill="#6a5500"/>
    <path d="M63.9.1V3.9H60.1V.1h3.8M64,0H60V4h4V0Z" fill="#6a5500"/>
    <path d="M51.9,4.1V7.9H48.1V4.1h3.8M52,4H48V8h4V4Z" fill="#6a5500"/>
    <path d="M55.9,4.1V7.9H52.1V4.1h3.8M56,4H52V8h4V4Z" fill="#6a5500"/>
    <path d="M59.9,4.1V7.9H56.1V4.1h3.8M60,4H56V8h4V4Z" fill="#6a5500"/>
    <path d="M63.9,4.1V7.9H60.1V4.1h3.8M64,4H60V8h4V4Z" fill="#6a5500"/>
    <path d="M51.9,8.1v3.8H48.1V8.1h3.8M52,8H48v4h4V8Z" fill="#6a5500"/>
    <path d="M55.9,8.1v3.8H52.1V8.1h3.8M56,8H52v4h4V8Z" fill="#6a5500"/>
    <path d="M59.9,8.1v3.8H56.1V8.1h3.8M60,8H56v4h4V8Z" fill="#6a5500"/>
    <path d="M63.9,8.1v3.8H60.1V8.1h3.8M64,8H60v4h4V8Z" fill="#6a5500"/>
    <path d="M51.9,12.1v3.8H48.1V12.1h3.8M52,12H48v4h4V12Z" fill="#6a5500"/>
    <path d="M55.9,12.1v3.8H52.1V12.1h3.8M56,12H52v4h4V12Z" fill="#6a5500"/>
    <path d="M59.9,12.1v3.8H56.1V12.1h3.8M60,12H56v4h4V12Z" fill="#6a5500"/>
    <path d="M63.9,12.1v3.8H60.1V12.1h3.8M64,12H60v4h4V12Z" fill="#6a5500"/>
    <path d="M35.9,16.1v3.8H32.1V16.1h3.8M36,16H32v4h4V16Z" fill="#6a5500"/>
    <path d="M39.9,16.1v3.8H36.1V16.1h3.8M40,16H36v4h4V16Z" fill="#6a5500"/>
    <path d="M43.9,16.1v3.8H40.1V16.1h3.8M44,16H40v4h4V16Z" fill="#6a5500"/>
    <path d="M47.9,16.1v3.8H44.1V16.1h3.8M48,16H44v4h4V16Z" fill="#6a5500"/>
    <path d="M35.9,20.1v3.8H32.1V20.1h3.8M36,20H32v4h4V20Z" fill="#6a5500"/>
    <path d="M39.9,20.1v3.8H36.1V20.1h3.8M40,20H36v4h4V20Z" fill="#6a5500"/>
    <path d="M43.9,20.1v3.8H40.1V20.1h3.8M44,20H40v4h4V20Z" fill="#6a5500"/>
    <path d="M47.9,20.1v3.8H44.1V20.1h3.8M48,20H44v4h4V20Z" fill="#6a5500"/>
    <path d="M35.9,24.1v3.8H32.1V24.1h3.8M36,24H32v4h4V24Z" fill="#6a5500"/>
    <path d="M39.9,24.1v3.8H36.1V24.1h3.8M40,24H36v4h4V24Z" fill="#6a5500"/>
    <path d="M43.9,24.1v3.8H40.1V24.1h3.8M44,24H40v4h4V24Z" fill="#6a5500"/>
    <path d="M47.9,24.1v3.8H44.1V24.1h3.8M48,24H44v4h4V24Z" fill="#6a5500"/>
    <path d="M35.9,28.1v3.8H32.1V28.1h3.8M36,28H32v4h4V28Z" fill="#6a5500"/>
    <path d="M39.9,28.1v3.8H36.1V28.1h3.8M40,28H36v4h4V28Z" fill="#6a5500"/>
    <path d="M43.9,28.1v3.8H40.1V28.1h3.8M44,28H40v4h4V28Z" fill="#6a5500"/>
    <path d="M47.9,28.1v3.8H44.1V28.1h3.8M48,28H44v4h4V28Z" fill="#6a5500"/>
    <path d="M51.9,16.1v3.8H48.1V16.1h3.8M52,16H48v4h4V16Z" fill="#6a5500"/>
    <path d="M55.9,16.1v3.8H52.1V16.1h3.8M56,16H52v4h4V16Z" fill="#6a5500"/>
    <path d="M59.9,16.1v3.8H56.1V16.1h3.8M60,16H56v4h4V16Z" fill="#6a5500"/>
    <path d="M63.9,16.1v3.8H60.1V16.1h3.8M64,16H60v4h4V16Z" fill="#6a5500"/>
    <path d="M51.9,20.1v3.8H48.1V20.1h3.8M52,20H48v4h4V20Z" fill="#6a5500"/>
    <path d="M55.9,20.1v3.8H52.1V20.1h3.8M56,20H52v4h4V20Z" fill="#6a5500"/>
    <path d="M59.9,20.1v3.8H56.1V20.1h3.8M60,20H56v4h4V20Z" fill="#6a5500"/>
    <path d="M63.9,20.1v3.8H60.1V20.1h3.8M64,20H60v4h4V20Z" fill="#6a5500"/>
    <path d="M51.9,24.1v3.8H48.1V24.1h3.8M52,24H48v4h4V24Z" fill="#6a5500"/>
    <path d="M55.9,24.1v3.8H52.1V24.1h3.8M56,24H52v4h4V24Z" fill="#6a5500"/>
    <path d="M59.9,24.1v3.8H56.1V24.1h3.8M60,24H56v4h4V24Z" fill="#6a5500"/>
    <path d="M63.9,24.1v3.8H60.1V24.1h3.8M64,24H60v4h4V24Z" fill="#6a5500"/>
    <path d="M51.9,28.1v3.8H48.1V28.1h3.8M52,28H48v4h4V28Z" fill="#6a5500"/>
    <path d="M55.9,28.1v3.8H52.1V28.1h3.8M56,28H52v4h4V28Z" fill="#6a5500"/>
    <path d="M59.9,28.1v3.8H56.1V28.1h3.8M60,28H56v4h4V28Z" fill="#6a5500"/>
    <path d="M63.9,28.1v3.8H60.1V28.1h3.8M64,28H60v4h4V28Z" fill="#6a5500"/>
    <path d="M3.9,32.1v3.8H.1V32.1H3.9M4,32H0v4H4V32Z" fill="#6a5500"/>
    <path d="M7.9,32.1v3.8H4.1V32.1H7.9M8,32H4v4H8V32Z" fill="#6a5500"/>
    <path d="M11.9,32.1v3.8H8.1V32.1h3.8M12,32H8v4h4V32Z" fill="#6a5500"/>
    <path d="M15.9,32.1v3.8H12.1V32.1h3.8M16,32H12v4h4V32Z" fill="#6a5500"/>
    <path d="M3.9,36.1v3.8H.1V36.1H3.9M4,36H0v4H4V36Z" fill="#6a5500"/>
    <path d="M7.9,36.1v3.8H4.1V36.1H7.9M8,36H4v4H8V36Z" fill="#6a5500"/>
    <path d="M11.9,36.1v3.8H8.1V36.1h3.8M12,36H8v4h4V36Z" fill="#6a5500"/>
    <path d="M15.9,36.1v3.8H12.1V36.1h3.8M16,36H12v4h4V36Z" fill="#6a5500"/>
    <path d="M3.9,40.1v3.8H.1V40.1H3.9M4,40H0v4H4V40Z" fill="#6a5500"/>
    <path d="M7.9,40.1v3.8H4.1V40.1H7.9M8,40H4v4H8V40Z" fill="#6a5500"/>
    <path d="M11.9,40.1v3.8H8.1V40.1h3.8M12,40H8v4h4V40Z" fill="#6a5500"/>
    <path d="M15.9,40.1v3.8H12.1V40.1h3.8M16,40H12v4h4V40Z" fill="#6a5500"/>
    <path d="M3.9,44.1v3.8H.1V44.1H3.9M4,44H0v4H4V44Z" fill="#6a5500"/>
    <path d="M7.9,44.1v3.8H4.1V44.1H7.9M8,44H4v4H8V44Z" fill="#6a5500"/>
    <path d="M11.9,44.1v3.8H8.1V44.1h3.8M12,44H8v4h4V44Z" fill="#6a5500"/>
    <path d="M15.9,44.1v3.8H12.1V44.1h3.8M16,44H12v4h4V44Z" fill="#6a5500"/>
    <path d="M19.9,32.1v3.8H16.1V32.1h3.8M20,32H16v4h4V32Z" fill="#6a5500"/>
    <path d="M23.9,32.1v3.8H20.1V32.1h3.8M24,32H20v4h4V32Z" fill="#6a5500"/>
    <path d="M27.9,32.1v3.8H24.1V32.1h3.8M28,32H24v4h4V32Z" fill="#6a5500"/>
    <path d="M31.9,32.1v3.8H28.1V32.1h3.8M32,32H28v4h4V32Z" fill="#6a5500"/>
    <path d="M19.9,36.1v3.8H16.1V36.1h3.8M20,36H16v4h4V36Z" fill="#6a5500"/>
    <path d="M23.9,36.1v3.8H20.1V36.1h3.8M24,36H20v4h4V36Z" fill="#6a5500"/>
    <path d="M27.9,36.1v3.8H24.1V36.1h3.8M28,36H24v4h4V36Z" fill="#6a5500"/>
    <path d="M31.9,36.1v3.8H28.1V36.1h3.8M32,36H28v4h4V36Z" fill="#6a5500"/>
    <path d="M19.9,40.1v3.8H16.1V40.1h3.8M20,40H16v4h4V40Z" fill="#6a5500"/>
    <path d="M23.9,40.1v3.8H20.1V40.1h3.8M24,40H20v4h4V40Z" fill="#6a5500"/>
    <path d="M27.9,40.1v3.8H24.1V40.1h3.8M28,40H24v4h4V40Z" fill="#6a5500"/>
    <path d="M31.9,40.1v3.8H28.1V40.1h3.8M32,40H28v4h4V40Z" fill="#6a5500"/>
    <path d="M19.9,44.1v3.8H16.1V44.1h3.8M20,44H16v4h4V44Z" fill="#6a5500"/>
    <path d="M23.9,44.1v3.8H20.1V44.1h3.8M24,44H20v4h4V44Z" fill="#6a5500"/>
    <path d="M27.9,44.1v3.8H24.1V44.1h3.8M28,44H24v4h4V44Z" fill="#6a5500"/>
    <path d="M31.9,44.1v3.8H28.1V44.1h3.8M32,44H28v4h4V44Z" fill="#6a5500"/>
    <path d="M3.9,48.1v3.8H.1V48.1H3.9M4,48H0v4H4V48Z" fill="#6a5500"/>
    <path d="M7.9,48.1v3.8H4.1V48.1H7.9M8,48H4v4H8V48Z" fill="#6a5500"/>
    <path d="M11.9,48.1v3.8H8.1V48.1h3.8M12,48H8v4h4V48Z" fill="#6a5500"/>
    <path d="M15.9,48.1v3.8H12.1V48.1h3.8M16,48H12v4h4V48Z" fill="#6a5500"/>
    <path d="M3.9,52.1v3.8H.1V52.1H3.9M4,52H0v4H4V52Z" fill="#6a5500"/>
    <path d="M7.9,52.1v3.8H4.1V52.1H7.9M8,52H4v4H8V52Z" fill="#6a5500"/>
    <path d="M11.9,52.1v3.8H8.1V52.1h3.8M12,52H8v4h4V52Z" fill="#6a5500"/>
    <path d="M15.9,52.1v3.8H12.1V52.1h3.8M16,52H12v4h4V52Z" fill="#6a5500"/>
    <path d="M3.9,56.1v3.8H.1V56.1H3.9M4,56H0v4H4V56Z" fill="#6a5500"/>
    <path d="M7.9,56.1v3.8H4.1V56.1H7.9M8,56H4v4H8V56Z" fill="#6a5500"/>
    <path d="M11.9,56.1v3.8H8.1V56.1h3.8M12,56H8v4h4V56Z" fill="#6a5500"/>
    <path d="M15.9,56.1v3.8H12.1V56.1h3.8M16,56H12v4h4V56Z" fill="#6a5500"/>
    <path d="M3.9,60.1v3.8H.1V60.1H3.9M4,60H0v4H4V60Z" fill="#6a5500"/>
    <path d="M7.9,60.1v3.8H4.1V60.1H7.9M8,60H4v4H8V60Z" fill="#6a5500"/>
    <path d="M11.9,60.1v3.8H8.1V60.1h3.8M12,60H8v4h4V60Z" fill="#6a5500"/>
    <path d="M15.9,60.1v3.8H12.1V60.1h3.8M16,60H12v4h4V60Z" fill="#6a5500"/>
    <path d="M19.9,48.1v3.8H16.1V48.1h3.8M20,48H16v4h4V48Z" fill="#6a5500"/>
    <path d="M23.9,48.1v3.8H20.1V48.1h3.8M24,48H20v4h4V48Z" fill="#6a5500"/>
    <path d="M27.9,48.1v3.8H24.1V48.1h3.8M28,48H24v4h4V48Z" fill="#6a5500"/>
    <path d="M31.9,48.1v3.8H28.1V48.1h3.8M32,48H28v4h4V48Z" fill="#6a5500"/>
    <path d="M19.9,52.1v3.8H16.1V52.1h3.8M20,52H16v4h4V52Z" fill="#6a5500"/>
    <path d="M23.9,52.1v3.8H20.1V52.1h3.8M24,52H20v4h4V52Z" fill="#6a5500"/>
    <path d="M27.9,52.1v3.8H24.1V52.1h3.8M28,52H24v4h4V52Z" fill="#6a5500"/>
    <path d="M31.9,52.1v3.8H28.1V52.1h3.8M32,52H28v4h4V52Z" fill="#6a5500"/>
    <path d="M19.9,56.1v3.8H16.1V56.1h3.8M20,56H16v4h4V56Z" fill="#6a5500"/>
    <path d="M23.9,56.1v3.8H20.1V56.1h3.8M24,56H20v4h4V56Z" fill="#6a5500"/>
    <path d="M27.9,56.1v3.8H24.1V56.1h3.8M28,56H24v4h4V56Z" fill="#6a5500"/>
    <path d="M31.9,56.1v3.8H28.1V56.1h3.8M32,56H28v4h4V56Z" fill="#6a5500"/>
    <path d="M19.9,60.1v3.8H16.1V60.1h3.8M20,60H16v4h4V60Z" fill="#6a5500"/>
    <path d="M23.9,60.1v3.8H20.1V60.1h3.8M24,60H20v4h4V60Z" fill="#6a5500"/>
    <path d="M27.9,60.1v3.8H24.1V60.1h3.8M28,60H24v4h4V60Z" fill="#6a5500"/>
    <path d="M31.9,60.1v3.8H28.1V60.1h3.8M32,60H28v4h4V60Z" fill="#6a5500"/>
    <path d="M3.9.1V3.9H.1V.1H3.9M4,0H0V4H4V0Z" fill="#6a5500"/>
    <path d="M7.9.1V3.9H4.1V.1H7.9M8,0H4V4H8V0Z" fill="#6a5500"/>
    <path d="M11.9.1V3.9H8.1V.1h3.8M12,0H8V4h4V0Z" fill="#6a5500"/>
    <path d="M15.9.1V3.9H12.1V.1h3.8M16,0H12V4h4V0Z" fill="#6a5500"/>
    <path d="M3.9,4.1V7.9H.1V4.1H3.9M4,4H0V8H4V4Z" fill="#6a5500"/>
    <path d="M7.9,4.1V7.9H4.1V4.1H7.9M8,4H4V8H8V4Z" fill="#6a5500"/>
    <path d="M11.9,4.1V7.9H8.1V4.1h3.8M12,4H8V8h4V4Z" fill="#6a5500"/>
    <path d="M15.9,4.1V7.9H12.1V4.1h3.8M16,4H12V8h4V4Z" fill="#6a5500"/>
    <path d="M3.9,8.1v3.8H.1V8.1H3.9M4,8H0v4H4V8Z" fill="#6a5500"/>
    <path d="M7.9,8.1v3.8H4.1V8.1H7.9M8,8H4v4H8V8Z" fill="#6a5500"/>
    <path d="M11.9,8.1v3.8H8.1V8.1h3.8M12,8H8v4h4V8Z" fill="#6a5500"/>
    <path d="M15.9,8.1v3.8H12.1V8.1h3.8M16,8H12v4h4V8Z" fill="#6a5500"/>
    <path d="M3.9,12.1v3.8H.1V12.1H3.9M4,12H0v4H4V12Z" fill="#6a5500"/>
    <path d="M7.9,12.1v3.8H4.1V12.1H7.9M8,12H4v4H8V12Z" fill="#6a5500"/>
    <path d="M11.9,12.1v3.8H8.1V12.1h3.8M12,12H8v4h4V12Z" fill="#6a5500"/>
    <path d="M15.9,12.1v3.8H12.1V12.1h3.8M16,12H12v4h4V12Z" fill="#6a5500"/>
    <path d="M19.9.1V3.9H16.1V.1h3.8M20,0H16V4h4V0Z" fill="#6a5500"/>
    <path d="M23.9.1V3.9H20.1V.1h3.8M24,0H20V4h4V0Z" fill="#6a5500"/>
    <path d="M27.9.1V3.9H24.1V.1h3.8M28,0H24V4h4V0Z" fill="#6a5500"/>
    <path d="M31.9.1V3.9H28.1V.1h3.8M32,0H28V4h4V0Z" fill="#6a5500"/>
    <path d="M19.9,4.1V7.9H16.1V4.1h3.8M20,4H16V8h4V4Z" fill="#6a5500"/>
    <path d="M23.9,4.1V7.9H20.1V4.1h3.8M24,4H20V8h4V4Z" fill="#6a5500"/>
    <path d="M27.9,4.1V7.9H24.1V4.1h3.8M28,4H24V8h4V4Z" fill="#6a5500"/>
    <path d="M31.9,4.1V7.9H28.1V4.1h3.8M32,4H28V8h4V4Z" fill="#6a5500"/>
    <path d="M19.9,8.1v3.8H16.1V8.1h3.8M20,8H16v4h4V8Z" fill="#6a5500"/>
    <path d="M23.9,8.1v3.8H20.1V8.1h3.8M24,8H20v4h4V8Z" fill="#6a5500"/>
    <path d="M27.9,8.1v3.8H24.1V8.1h3.8M28,8H24v4h4V8Z" fill="#6a5500"/>
    <path d="M31.9,8.1v3.8H28.1V8.1h3.8M32,8H28v4h4V8Z" fill="#6a5500"/>
    <path d="M19.9,12.1v3.8H16.1V12.1h3.8M20,12H16v4h4V12Z" fill="#6a5500"/>
    <path d="M23.9,12.1v3.8H20.1V12.1h3.8M24,12H20v4h4V12Z" fill="#6a5500"/>
    <path d="M27.9,12.1v3.8H24.1V12.1h3.8M28,12H24v4h4V12Z" fill="#6a5500"/>
    <path d="M31.9,12.1v3.8H28.1V12.1h3.8M32,12H28v4h4V12Z" fill="#6a5500"/>
    <path d="M3.9,16.1v3.8H.1V16.1H3.9M4,16H0v4H4V16Z" fill="#6a5500"/>
    <path d="M7.9,16.1v3.8H4.1V16.1H7.9M8,16H4v4H8V16Z" fill="#6a5500"/>
    <path d="M11.9,16.1v3.8H8.1V16.1h3.8M12,16H8v4h4V16Z" fill="#6a5500"/>
    <path d="M15.9,16.1v3.8H12.1V16.1h3.8M16,16H12v4h4V16Z" fill="#6a5500"/>
    <path d="M3.9,20.1v3.8H.1V20.1H3.9M4,20H0v4H4V20Z" fill="#6a5500"/>
    <path d="M7.9,20.1v3.8H4.1V20.1H7.9M8,20H4v4H8V20Z" fill="#6a5500"/>
    <path d="M11.9,20.1v3.8H8.1V20.1h3.8M12,20H8v4h4V20Z" fill="#6a5500"/>
    <path d="M15.9,20.1v3.8H12.1V20.1h3.8M16,20H12v4h4V20Z" fill="#6a5500"/>
    <path d="M3.9,24.1v3.8H.1V24.1H3.9M4,24H0v4H4V24Z" fill="#6a5500"/>
    <path d="M7.9,24.1v3.8H4.1V24.1H7.9M8,24H4v4H8V24Z" fill="#6a5500"/>
    <path d="M11.9,24.1v3.8H8.1V24.1h3.8M12,24H8v4h4V24Z" fill="#6a5500"/>
    <path d="M15.9,24.1v3.8H12.1V24.1h3.8M16,24H12v4h4V24Z" fill="#6a5500"/>
    <path d="M3.9,28.1v3.8H.1V28.1H3.9M4,28H0v4H4V28Z" fill="#6a5500"/>
    <path d="M7.9,28.1v3.8H4.1V28.1H7.9M8,28H4v4H8V28Z" fill="#6a5500"/>
    <path d="M11.9,28.1v3.8H8.1V28.1h3.8M12,28H8v4h4V28Z" fill="#6a5500"/>
    <path d="M15.9,28.1v3.8H12.1V28.1h3.8M16,28H12v4h4V28Z" fill="#6a5500"/>
    <path d="M19.9,16.1v3.8H16.1V16.1h3.8M20,16H16v4h4V16Z" fill="#6a5500"/>
    <path d="M23.9,16.1v3.8H20.1V16.1h3.8M24,16H20v4h4V16Z" fill="#6a5500"/>
    <path d="M27.9,16.1v3.8H24.1V16.1h3.8M28,16H24v4h4V16Z" fill="#6a5500"/>
    <path d="M31.9,16.1v3.8H28.1V16.1h3.8M32,16H28v4h4V16Z" fill="#6a5500"/>
    <path d="M19.9,20.1v3.8H16.1V20.1h3.8M20,20H16v4h4V20Z" fill="#6a5500"/>
    <path d="M23.9,20.1v3.8H20.1V20.1h3.8M24,20H20v4h4V20Z" fill="#6a5500"/>
    <path d="M27.9,20.1v3.8H24.1V20.1h3.8M28,20H24v4h4V20Z" fill="#6a5500"/>
    <path d="M31.9,20.1v3.8H28.1V20.1h3.8M32,20H28v4h4V20Z" fill="#6a5500"/>
    <path d="M19.9,24.1v3.8H16.1V24.1h3.8M20,24H16v4h4V24Z" fill="#6a5500"/>
    <path d="M23.9,24.1v3.8H20.1V24.1h3.8M24,24H20v4h4V24Z" fill="#6a5500"/>
    <path d="M27.9,24.1v3.8H24.1V24.1h3.8M28,24H24v4h4V24Z" fill="#6a5500"/>
    <path d="M31.9,24.1v3.8H28.1V24.1h3.8M32,24H28v4h4V24Z" fill="#6a5500"/>
    <path d="M19.9,28.1v3.8H16.1V28.1h3.8M20,28H16v4h4V28Z" fill="#6a5500"/>
    <path d="M23.9,28.1v3.8H20.1V28.1h3.8M24,28H20v4h4V28Z" fill="#6a5500"/>
    <path d="M27.9,28.1v3.8H24.1V28.1h3.8M28,28H24v4h4V28Z" fill="#6a5500"/>
    <path d="M31.9,28.1v3.8H28.1V28.1h3.8M32,28H28v4h4V28Z" fill="#6a5500"/>
  </g>
  <rect width="64" height="64" fill="#edea77"/>
  <g>
    <rect x="10" y="54" width="40" height="4" fill="#b2b059"/>
    <rect x="12" y="16" width="40" height="36" fill="#1077a8"/>
    <rect x="16" y="12" width="32" height="4" fill="#1077a8"/>
    <rect x="12" y="52" width="40" height="4" fill="#0e405b"/>
    <rect x="16" y="48" width="36" height="4" fill="#0e405b"/>
    <rect x="20" y="44" width="32" height="4" fill="#0e405b"/>
    <rect x="37" y="46" width="10" height="2" fill="#040404"/>
    <rect x="37" y="49" width="10" height="2" fill="#040404"/>
    <rect x="37" y="52" width="10" height="2" fill="#040404"/>
    <rect x="24" y="51" width="2" height="2" fill="#e6e6e6"/>
    <rect x="14" y="14" width="2" height="2" fill="#1077a8"/>
    <rect x="18" y="46" width="2" height="2" fill="#0e405b"/>
    <rect x="14" y="50" width="2" height="2" fill="#0e405b"/>
    <rect x="48" y="14" width="2" height="2" fill="#1077a8"/>
    <rect x="48" y="14" width="2" height="26" fill="#70adcb"/>
  </g>
</svg>
